<?xml version="1.0" encoding="utf-8"?>
<!-- Generator: Adobe Illustrator 19.0.0, SVG Export Plug-In . SVG Version: 6.00 Build 0)  -->
<svg version="1.1" id="Layer_1" xmlns="http://www.w3.org/2000/svg" xmlns:xlink="http://www.w3.org/1999/xlink" x="0px" y="0px"
	 viewBox="1921.1 569.2 155.5 155.5" style="enable-background:new 1921.1 569.2 155.5 155.5;" xml:space="preserve">
<style type="text/css">
	.st0{fill:#FFFFFF;}
	.st1{fill:none;stroke:#1D1D1B;stroke-width:0.7412;stroke-miterlimit:22.9256;}
	.st2{clip-path:url(#SVGID_2_);fill:#EE7D00;}
	.st3{clip-path:url(#SVGID_4_);fill:#EE7D00;}
	.st4{clip-path:url(#SVGID_6_);fill:#EE7D00;}
	.st5{clip-path:url(#SVGID_8_);fill:#EE7D00;}
	.st6{clip-path:url(#SVGID_10_);fill:#EE7D00;}
	.st7{fill:#1D1D1B;}
	.st8{fill:none;stroke:#1D1D1B;stroke-width:0.216;stroke-miterlimit:22.9256;}
	.st9{fill:none;stroke:#1D1D1B;stroke-width:0.9514;stroke-miterlimit:22.9256;}
	.st10{fill:#EE7D00;}
</style>
<g>
	<path class="st0" d="M1996.5,572.6c41.5,0,75.4,33.9,75.4,75.4c0,41.5-33.9,75.4-75.4,75.4c-41.5,0-75.4-33.9-75.4-75.4
		C1921.1,606.5,1955,572.6,1996.5,572.6"/>
	<path class="st1" d="M1996.5,573.9c40.8,0,74.1,33.3,74.1,74.1c0,40.8-33.3,74.1-74.1,74.1c-40.8,0-74.1-33.3-74.1-74.1
		C1922.4,607.2,1955.7,573.9,1996.5,573.9z"/>
	<path class="st0" d="M1996.5,573.9c40.8,0,74.1,33.3,74.1,74.1c0,40.8-33.3,74.1-74.1,74.1c-40.8,0-74.1-33.3-74.1-74.1
		C1922.4,607.2,1955.7,573.9,1996.5,573.9"/>
	<path class="st0" d="M1996.5,590.7c31.6,0,57.3,25.8,57.3,57.3c0,31.6-25.8,57.3-57.3,57.3c-31.6,0-57.3-25.8-57.3-57.3
		C1939.2,616.4,1964.9,590.7,1996.5,590.7"/>
	<path class="st1" d="M1996.5,592.2c30.7,0,55.8,25.1,55.8,55.8c0,30.7-25.1,55.8-55.8,55.8c-30.7,0-55.8-25-55.8-55.8
		C1940.7,617.3,1965.8,592.2,1996.5,592.2z"/>
	<path d="M1996.5,592.2c30.7,0,55.8,25.1,55.8,55.8s-25.1,55.8-55.8,55.8c-30.7,0-55.8-25.1-55.8-55.8
		C1940.7,617.3,1965.8,592.2,1996.5,592.2"/>
	<g>
		<g>
			<g>
				<defs>
					<path id="SVGID_1_" d="M1996.5,592.2c30.7,0,55.8,25.1,55.8,55.8s-25.1,55.8-55.8,55.8c-30.7,0-55.8-25.1-55.8-55.8
						C1940.7,617.3,1965.8,592.2,1996.5,592.2"/>
				</defs>
				<clipPath id="SVGID_2_">
					<use xlink:href="#SVGID_1_"  style="overflow:visible;"/>
				</clipPath>
				<polygon class="st2" points="1944.7,706.6 1927.6,576.7 1962.3,569.2 				"/>
			</g>
		</g>
		<g>
			<g>
				<defs>
					<path id="SVGID_3_" d="M1996.5,592.2c30.7,0,55.8,25.1,55.8,55.8s-25.1,55.8-55.8,55.8c-30.7,0-55.8-25.1-55.8-55.8
						C1940.7,617.3,1965.8,592.2,1996.5,592.2"/>
				</defs>
				<clipPath id="SVGID_4_">
					<use xlink:href="#SVGID_3_"  style="overflow:visible;"/>
				</clipPath>
				<polygon class="st3" points="1944.1,706.8 1978.3,580.3 2013.2,586.7 				"/>
			</g>
		</g>
		<g>
			<g>
				<defs>
					<path id="SVGID_5_" d="M1996.5,592.2c30.7,0,55.8,25.1,55.8,55.8s-25.1,55.8-55.8,55.8c-30.7,0-55.8-25.1-55.8-55.8
						C1940.7,617.3,1965.8,592.2,1996.5,592.2"/>
				</defs>
				<clipPath id="SVGID_6_">
					<use xlink:href="#SVGID_5_"  style="overflow:visible;"/>
				</clipPath>
				<polygon class="st4" points="1943.4,706.6 2029.4,596.9 2053.4,622.5 				"/>
			</g>
		</g>
		<g>
			<g>
				<defs>
					<path id="SVGID_7_" d="M1996.5,592.2c30.7,0,55.8,25.1,55.8,55.8s-25.1,55.8-55.8,55.8c-30.7,0-55.8-25.1-55.8-55.8
						C1940.7,617.3,1965.8,592.2,1996.5,592.2"/>
				</defs>
				<clipPath id="SVGID_8_">
					<use xlink:href="#SVGID_7_"  style="overflow:visible;"/>
				</clipPath>
				<polygon class="st5" points="1942.9,706.3 2056.9,641.6 2076.8,671 				"/>
			</g>
		</g>
		<g>
			<g>
				<defs>
					<path id="SVGID_9_" d="M1996.5,592.2c30.7,0,55.8,25.1,55.8,55.8s-25.1,55.8-55.8,55.8c-30.7,0-55.8-25.1-55.8-55.8
						C1940.7,617.3,1965.8,592.2,1996.5,592.2"/>
				</defs>
				<clipPath id="SVGID_10_">
					<use xlink:href="#SVGID_9_"  style="overflow:visible;"/>
				</clipPath>
				<polygon class="st6" points="1942.5,705.7 2072.6,690 2079.7,724.7 				"/>
			</g>
		</g>
	</g>
	<path class="st7" d="M1932.5,620.8l0.4-0.9l4.2-0.5l-2.3-3.5l0.4-0.9l2.9,4.5l3.8,1.8l-0.4,0.8l-3.8-1.8L1932.5,620.8z
		 M1930.4,626.1l0.3-0.8l7.4,2.8l1.2-3.1l0.8,0.3l-1.5,4L1930.4,626.1z M1928.4,633.2l1.3-4.8l0.8,0.2l-1,4l2.6,0.7l1-4l0.8,0.2
		l-1,4l3.3,0.9l1-4l0.8,0.2l-1.3,4.8L1928.4,633.2z M1926.7,643.3l0.1-0.9l7.1-1.9l-6.2-3.9l0.1-0.9l8.1,5.1l0,0.2L1926.7,643.3z
		 M1927.3,650.3c0,0.6,0.2,1.3,0.5,1.8c0.3,0.6,0.8,1,1.4,1.3c0.6,0.3,1.2,0.5,1.9,0.5c1,0,1.9-0.4,2.6-1.1c0.7-0.7,1.1-1.6,1.1-2.6
		c0-0.7-0.2-1.3-0.5-1.9c-0.3-0.6-0.8-1-1.4-1.3c-0.6-0.3-1.2-0.5-1.9-0.5c-0.7,0-1.3,0.2-1.9,0.5c-0.6,0.3-1,0.8-1.3,1.4
		C1927.5,649,1927.3,649.7,1927.3,650.3z M1926.5,650.4c0-1.3,0.4-2.4,1.3-3.3c0.9-0.9,2-1.3,3.2-1.4c1.3,0,2.4,0.4,3.3,1.3
		c0.9,0.9,1.3,2,1.4,3.2c0,1.3-0.4,2.4-1.3,3.3c-0.9,0.9-1.9,1.3-3.2,1.4c-0.8,0-1.6-0.2-2.3-0.6c-0.7-0.4-1.3-1-1.7-1.6
		C1926.7,651.9,1926.5,651.2,1926.5,650.4z M1927.8,661.3l-0.1-0.9l7.8-1.2l-0.5-3.3l0.8-0.1l0.6,4.2L1927.8,661.3z"/>
	<path class="st8" d="M1932.5,620.8l0.4-0.9l4.2-0.5l-2.3-3.5l0.4-0.9l2.9,4.5l3.8,1.8l-0.4,0.8l-3.8-1.8L1932.5,620.8z
		 M1930.4,626.1l0.3-0.8l7.4,2.8l1.2-3.1l0.8,0.3l-1.5,4L1930.4,626.1z M1928.4,633.2l1.3-4.8l0.8,0.2l-1,4l2.6,0.7l1-4l0.8,0.2
		l-1,4l3.3,0.9l1-4l0.8,0.2l-1.3,4.8L1928.4,633.2z M1926.7,643.3l0.1-0.9l7.1-1.9l-6.2-3.9l0.1-0.9l8.1,5.1l0,0.2L1926.7,643.3z
		 M1927.3,650.3c0,0.6,0.2,1.3,0.5,1.8c0.3,0.6,0.8,1,1.4,1.3c0.6,0.3,1.2,0.5,1.9,0.5c1,0,1.9-0.4,2.6-1.1c0.7-0.7,1.1-1.6,1.1-2.6
		c0-0.7-0.2-1.3-0.5-1.9c-0.3-0.6-0.8-1-1.4-1.3c-0.6-0.3-1.2-0.5-1.9-0.5c-0.7,0-1.3,0.2-1.9,0.5c-0.6,0.3-1,0.8-1.3,1.4
		C1927.5,649,1927.3,649.7,1927.3,650.3z M1926.5,650.4c0-1.3,0.4-2.4,1.3-3.3c0.9-0.9,2-1.3,3.2-1.4c1.3,0,2.4,0.4,3.3,1.3
		c0.9,0.9,1.3,2,1.4,3.2c0,1.3-0.4,2.4-1.3,3.3c-0.9,0.9-1.9,1.3-3.2,1.4c-0.8,0-1.6-0.2-2.3-0.6c-0.7-0.4-1.3-1-1.7-1.6
		C1926.7,651.9,1926.5,651.2,1926.5,650.4z M1927.8,661.3l-0.1-0.9l7.8-1.2l-0.5-3.3l0.8-0.1l0.6,4.2L1927.8,661.3z"/>
	<path class="st7" d="M2033.7,589.4l0.7,0.5l-4.2,6.7l2.8,1.8l-0.4,0.7l-3.6-2.2L2033.7,589.4z M2027.4,588l-2.8,2.1l2.7,1.4
		L2027.4,588z M2028.3,586.4l-0.3,9.6l-0.8-0.4l0.1-3.2l-3.3-1.7l-2.5,1.9l-0.9-0.4l7.6-5.9L2028.3,586.4z M2012.8,589.6l2.7-8.3
		l0.2,0.1l3.5,8.1l2.1-6.4l0.8,0.3l-2.7,8.3l-0.2-0.1l-3.4-8l-2,6.3L2012.8,589.6z M2007.9,580.4c-0.6-0.1-1.3-0.1-1.9,0.2
		c-0.6,0.2-1.1,0.6-1.6,1.1c-0.4,0.5-0.7,1.1-0.8,1.8c-0.2,1,0,1.9,0.6,2.8c0.6,0.8,1.4,1.3,2.4,1.5c0.7,0.1,1.3,0.1,1.9-0.2
		c0.6-0.2,1.1-0.6,1.6-1.1c0.4-0.5,0.7-1.1,0.8-1.8c0.1-0.7,0.1-1.3-0.2-1.9c-0.2-0.6-0.6-1.1-1.1-1.6
		C2009.1,580.7,2008.6,580.5,2007.9,580.4z M2008,579.5c1.3,0.2,2.3,0.9,3,1.9c0.7,1,1,2.2,0.7,3.4c-0.2,1.3-0.8,2.2-1.9,3
		c-1,0.7-2.2,1-3.4,0.7c-1.3-0.2-2.3-0.8-3-1.9c-0.7-1-1-2.2-0.8-3.4c0.1-0.8,0.5-1.6,1-2.2c0.5-0.6,1.2-1.1,1.9-1.4
		C2006.4,579.4,2007.2,579.4,2008,579.5z M2000.1,578.9l0.9,0.1l-0.6,8.7l-0.9-0.1L2000.1,578.9z M1992.7,585.9l0.7-0.5
		c0.5,1,1.2,1.4,1.8,1.4c0.3,0,0.6-0.1,0.8-0.2c0.3-0.1,0.4-0.3,0.6-0.6c0.1-0.2,0.2-0.5,0.2-0.7c0-0.3-0.1-0.6-0.3-0.9
		c-0.3-0.4-0.8-0.8-1.5-1.4c-0.7-0.5-1.2-0.9-1.4-1.2c-0.3-0.4-0.5-0.8-0.5-1.3c0-0.4,0.1-0.7,0.3-1c0.2-0.3,0.4-0.6,0.8-0.8
		c0.3-0.2,0.7-0.3,1.1-0.3c0.4,0,0.8,0.1,1.2,0.3c0.4,0.2,0.7,0.6,1.2,1.1l-0.7,0.6c-0.3-0.4-0.6-0.7-0.9-0.8
		c-0.2-0.1-0.5-0.2-0.8-0.2c-0.4,0-0.6,0.1-0.9,0.3c-0.2,0.2-0.3,0.5-0.3,0.8c0,0.2,0,0.4,0.1,0.6c0.1,0.2,0.2,0.4,0.4,0.6
		c0.1,0.1,0.5,0.4,1.1,0.9c0.8,0.5,1.3,1,1.6,1.5c0.3,0.4,0.4,0.9,0.4,1.3c0,0.6-0.2,1.2-0.7,1.7c-0.5,0.5-1.1,0.7-1.7,0.7
		c-0.5,0-1-0.1-1.4-0.4C1993.5,587,1993,586.6,1992.7,585.9z M1986.5,586.6l0.7-0.5c0.6,0.9,1.3,1.3,2,1.2c0.3,0,0.6-0.1,0.8-0.3
		c0.2-0.2,0.4-0.4,0.5-0.6c0.1-0.2,0.1-0.5,0.1-0.7c0-0.3-0.2-0.6-0.4-0.8c-0.3-0.4-0.9-0.8-1.7-1.2c-0.8-0.5-1.3-0.8-1.5-1
		c-0.4-0.4-0.6-0.8-0.6-1.3c0-0.4,0-0.7,0.1-1.1c0.1-0.3,0.4-0.6,0.7-0.8c0.3-0.2,0.6-0.3,1-0.4c0.4,0,0.8,0,1.2,0.2
		c0.4,0.2,0.8,0.5,1.3,1l-0.6,0.6c-0.4-0.4-0.7-0.6-0.9-0.7c-0.2-0.1-0.5-0.2-0.8-0.1c-0.3,0-0.6,0.2-0.8,0.4
		c-0.2,0.2-0.3,0.5-0.2,0.8c0,0.2,0.1,0.4,0.2,0.5c0.1,0.2,0.3,0.3,0.5,0.5c0.1,0.1,0.5,0.3,1.2,0.7c0.8,0.5,1.4,0.9,1.7,1.3
		c0.3,0.4,0.5,0.8,0.6,1.2c0.1,0.6-0.1,1.2-0.5,1.7c-0.4,0.5-1,0.8-1.7,0.9c-0.5,0.1-1,0-1.5-0.2
		C1987.3,587.7,1986.9,587.2,1986.5,586.6z M1979.3,581l4.9-1l0.2,0.8l-4,0.9l0.6,2.7l4-0.9l0.2,0.8l-4,0.8l0.7,3.3l4-0.9l0.2,0.8
		l-4.9,1L1979.3,581z M1972.9,582.9l4.2-1.3l0.3,0.8l-3.3,1.1l0.8,2.6l3.3-1.1l0.3,0.8l-3.3,1.1l1.3,4.1l-0.8,0.3L1972.9,582.9z
		 M1966,586.6c-0.6,0.3-1,0.7-1.4,1.3c-0.4,0.6-0.6,1.2-0.6,1.8c0,0.7,0.1,1.3,0.4,1.9c0.5,0.9,1.2,1.5,2.2,1.9
		c1,0.3,1.9,0.2,2.8-0.2c0.6-0.3,1.1-0.7,1.4-1.3c0.4-0.6,0.6-1.2,0.6-1.8c0-0.7-0.1-1.3-0.4-1.9c-0.3-0.6-0.7-1.1-1.3-1.5
		c-0.5-0.4-1.1-0.5-1.8-0.6C1967.2,586.1,1966.6,586.3,1966,586.6z M1965.6,585.8c1.2-0.6,2.4-0.7,3.6-0.3c1.2,0.4,2.1,1.1,2.7,2.3
		c0.6,1.1,0.7,2.3,0.3,3.5c-0.4,1.2-1.1,2.1-2.3,2.7c-1.2,0.6-2.3,0.7-3.5,0.3c-1.2-0.4-2.1-1.1-2.6-2.3c-0.4-0.7-0.6-1.5-0.5-2.4
		c0-0.8,0.3-1.6,0.7-2.3C1964.3,586.7,1964.9,586.2,1965.6,585.8z M1956.2,592.8l1.7,2.4l1.2-0.9c0.5-0.3,0.8-0.6,1-0.9
		c0.2-0.3,0.2-0.5,0.2-0.8c0-0.3-0.1-0.6-0.3-0.8c-0.2-0.2-0.4-0.4-0.7-0.5c-0.3-0.1-0.5-0.1-0.8-0.1c-0.3,0.1-0.6,0.3-1.1,0.6
		L1956.2,592.8z M1955,592.6l1.4-1c0.8-0.6,1.4-0.9,1.7-1c0.5-0.2,1-0.2,1.5-0.1c0.5,0.1,0.9,0.4,1.2,0.9c0.3,0.4,0.4,0.8,0.4,1.2
		c0,0.4-0.1,0.8-0.3,1.2c-0.2,0.4-0.6,0.8-1.2,1.2l4.9,1.5l-0.9,0.6l-4.9-1.5l-0.4,0.3l2.3,3.3l-0.7,0.5L1955,592.6z M1950,597.9
		l1.9,2.3l1.1-0.9c0.5-0.4,0.8-0.7,0.9-1c0.1-0.3,0.2-0.5,0.2-0.8c0-0.3-0.1-0.5-0.3-0.8c-0.2-0.2-0.4-0.4-0.7-0.5
		c-0.3-0.1-0.5-0.1-0.8,0c-0.3,0.1-0.6,0.3-1.1,0.7L1950,597.9z M1948.8,597.8l1.3-1.1c0.8-0.6,1.3-1,1.6-1.2
		c0.5-0.2,0.9-0.3,1.4-0.2c0.5,0.1,0.9,0.4,1.3,0.8c0.4,0.4,0.6,0.9,0.6,1.4c0,0.5-0.2,1-0.5,1.4c-0.2,0.3-0.8,0.8-1.6,1.5l-0.5,0.4
		l2.6,3.1l-0.7,0.6L1948.8,597.8z"/>
	<path class="st8" d="M2033.7,589.4l0.7,0.5l-4.2,6.7l2.8,1.8l-0.4,0.7l-3.6-2.2L2033.7,589.4z M2027.4,588l-2.8,2.1l2.7,1.4
		L2027.4,588z M2028.3,586.4l-0.3,9.6l-0.8-0.4l0.1-3.2l-3.3-1.7l-2.5,1.9l-0.9-0.4l7.6-5.9L2028.3,586.4z M2012.8,589.6l2.7-8.3
		l0.2,0.1l3.5,8.1l2.1-6.4l0.8,0.3l-2.7,8.3l-0.2-0.1l-3.4-8l-2,6.3L2012.8,589.6z M2007.9,580.4c-0.6-0.1-1.3-0.1-1.9,0.2
		c-0.6,0.2-1.1,0.6-1.6,1.1c-0.4,0.5-0.7,1.1-0.8,1.8c-0.2,1,0,1.9,0.6,2.8c0.6,0.8,1.4,1.3,2.4,1.5c0.7,0.1,1.3,0.1,1.9-0.2
		c0.6-0.2,1.1-0.6,1.6-1.1c0.4-0.5,0.7-1.1,0.8-1.8c0.1-0.7,0.1-1.3-0.2-1.9c-0.2-0.6-0.6-1.1-1.1-1.6
		C2009.1,580.7,2008.6,580.5,2007.9,580.4z M2008,579.5c1.3,0.2,2.3,0.9,3,1.9c0.7,1,1,2.2,0.7,3.4c-0.2,1.3-0.8,2.2-1.9,3
		c-1,0.7-2.2,1-3.4,0.7c-1.3-0.2-2.3-0.8-3-1.9c-0.7-1-1-2.2-0.8-3.4c0.1-0.8,0.5-1.6,1-2.2c0.5-0.6,1.2-1.1,1.9-1.4
		C2006.4,579.4,2007.2,579.4,2008,579.5z M2000.1,578.9l0.9,0.1l-0.6,8.7l-0.9-0.1L2000.1,578.9z M1992.7,585.9l0.7-0.5
		c0.5,1,1.2,1.4,1.8,1.4c0.3,0,0.6-0.1,0.8-0.2c0.3-0.1,0.4-0.3,0.6-0.6c0.1-0.2,0.2-0.5,0.2-0.7c0-0.3-0.1-0.6-0.3-0.9
		c-0.3-0.4-0.8-0.8-1.5-1.4c-0.7-0.5-1.2-0.9-1.4-1.2c-0.3-0.4-0.5-0.8-0.5-1.3c0-0.4,0.1-0.7,0.3-1c0.2-0.3,0.4-0.6,0.8-0.8
		c0.3-0.2,0.7-0.3,1.1-0.3c0.4,0,0.8,0.1,1.2,0.3c0.4,0.2,0.7,0.6,1.2,1.1l-0.7,0.6c-0.3-0.4-0.6-0.7-0.9-0.8
		c-0.2-0.1-0.5-0.2-0.8-0.2c-0.4,0-0.6,0.1-0.9,0.3c-0.2,0.2-0.3,0.5-0.3,0.8c0,0.2,0,0.4,0.1,0.6c0.1,0.2,0.2,0.4,0.4,0.6
		c0.1,0.1,0.5,0.4,1.1,0.9c0.8,0.5,1.3,1,1.6,1.5c0.3,0.4,0.4,0.9,0.4,1.3c0,0.6-0.2,1.2-0.7,1.7c-0.5,0.5-1.1,0.7-1.7,0.7
		c-0.5,0-1-0.1-1.4-0.4C1993.5,587,1993,586.6,1992.7,585.9z M1986.5,586.6l0.7-0.5c0.6,0.9,1.3,1.3,2,1.2c0.3,0,0.6-0.1,0.8-0.3
		c0.2-0.2,0.4-0.4,0.5-0.6c0.1-0.2,0.1-0.5,0.1-0.7c0-0.3-0.2-0.6-0.4-0.8c-0.3-0.4-0.9-0.8-1.7-1.2c-0.8-0.5-1.3-0.8-1.5-1
		c-0.4-0.4-0.6-0.8-0.6-1.3c0-0.4,0-0.7,0.1-1.1c0.1-0.3,0.4-0.6,0.7-0.8c0.3-0.2,0.6-0.3,1-0.4c0.4,0,0.8,0,1.2,0.2
		c0.4,0.2,0.8,0.5,1.3,1l-0.6,0.6c-0.4-0.4-0.7-0.6-0.9-0.7c-0.2-0.1-0.5-0.2-0.8-0.1c-0.3,0-0.6,0.2-0.8,0.4
		c-0.2,0.2-0.3,0.5-0.2,0.8c0,0.2,0.1,0.4,0.2,0.5c0.1,0.2,0.3,0.3,0.5,0.5c0.1,0.1,0.5,0.3,1.2,0.7c0.8,0.5,1.4,0.9,1.7,1.3
		c0.3,0.4,0.5,0.8,0.6,1.2c0.1,0.6-0.1,1.2-0.5,1.7c-0.4,0.5-1,0.8-1.7,0.9c-0.5,0.1-1,0-1.5-0.2
		C1987.3,587.7,1986.9,587.2,1986.5,586.6z M1979.3,581l4.9-1l0.2,0.8l-4,0.9l0.6,2.7l4-0.9l0.2,0.8l-4,0.8l0.7,3.3l4-0.9l0.2,0.8
		l-4.9,1L1979.3,581z M1972.9,582.9l4.2-1.3l0.3,0.8l-3.3,1.1l0.8,2.6l3.3-1.1l0.3,0.8l-3.3,1.1l1.3,4.1l-0.8,0.3L1972.9,582.9z
		 M1966,586.6c-0.6,0.3-1,0.7-1.4,1.3c-0.4,0.6-0.6,1.2-0.6,1.8c0,0.7,0.1,1.3,0.4,1.9c0.5,0.9,1.2,1.5,2.2,1.9
		c1,0.3,1.9,0.2,2.8-0.2c0.6-0.3,1.1-0.7,1.4-1.3c0.4-0.6,0.6-1.2,0.6-1.8c0-0.7-0.1-1.3-0.4-1.9c-0.3-0.6-0.7-1.1-1.3-1.5
		c-0.5-0.4-1.1-0.5-1.8-0.6C1967.2,586.1,1966.6,586.3,1966,586.6z M1965.6,585.8c1.2-0.6,2.4-0.7,3.6-0.3c1.2,0.4,2.1,1.1,2.7,2.3
		c0.6,1.1,0.7,2.3,0.3,3.5c-0.4,1.2-1.1,2.1-2.3,2.7c-1.2,0.6-2.3,0.7-3.5,0.3c-1.2-0.4-2.1-1.1-2.6-2.3c-0.4-0.7-0.6-1.5-0.5-2.4
		c0-0.8,0.3-1.6,0.7-2.3C1964.3,586.7,1964.9,586.2,1965.6,585.8z M1956.2,592.8l1.7,2.4l1.2-0.9c0.5-0.3,0.8-0.6,1-0.9
		c0.2-0.3,0.2-0.5,0.2-0.8c0-0.3-0.1-0.6-0.3-0.8c-0.2-0.2-0.4-0.4-0.7-0.5c-0.3-0.1-0.5-0.1-0.8-0.1c-0.3,0.1-0.6,0.3-1.1,0.6
		L1956.2,592.8z M1955,592.6l1.4-1c0.8-0.6,1.4-0.9,1.7-1c0.5-0.2,1-0.2,1.5-0.1c0.5,0.1,0.9,0.4,1.2,0.9c0.3,0.4,0.4,0.8,0.4,1.2
		c0,0.4-0.1,0.8-0.3,1.2c-0.2,0.4-0.6,0.8-1.2,1.2l4.9,1.5l-0.9,0.6l-4.9-1.5l-0.4,0.3l2.3,3.3l-0.7,0.5L1955,592.6z M1950,597.9
		l1.9,2.3l1.1-0.9c0.5-0.4,0.8-0.7,0.9-1c0.1-0.3,0.2-0.5,0.2-0.8c0-0.3-0.1-0.5-0.3-0.8c-0.2-0.2-0.4-0.4-0.7-0.5
		c-0.3-0.1-0.5-0.1-0.8,0c-0.3,0.1-0.6,0.3-1.1,0.7L1950,597.9z M1948.8,597.8l1.3-1.1c0.8-0.6,1.3-1,1.6-1.2
		c0.5-0.2,0.9-0.3,1.4-0.2c0.5,0.1,0.9,0.4,1.3,0.8c0.4,0.4,0.6,0.9,0.6,1.4c0,0.5-0.2,1-0.5,1.4c-0.2,0.3-0.8,0.8-1.6,1.5l-0.5,0.4
		l2.6,3.1l-0.7,0.6L1948.8,597.8z"/>
	<path class="st7" d="M2065,663.4l-0.3,1l-4,1.2l2.9,3l-0.3,1l-3.7-3.8l-4-1.1l0.2-0.8l4,1.1L2065,663.4z M2065.1,657.2l0.8,0.1
		l-0.8,4.7l-0.8-0.1l0.3-1.9l-7.8-1.4l0.2-0.9l7.8,1.4L2065.1,657.2z M2066.2,654.4l-0.1,0.9l-8.7-0.6l0.1-0.9L2066.2,654.4z
		 M2059.3,647.1l0.4,0.8c-1,0.5-1.5,1.1-1.5,1.8c0,0.3,0.1,0.6,0.2,0.8c0.1,0.3,0.3,0.5,0.5,0.6c0.2,0.1,0.5,0.2,0.7,0.2
		c0.3,0,0.6-0.1,0.9-0.3c0.4-0.3,0.9-0.8,1.4-1.5c0.6-0.7,1-1.2,1.2-1.3c0.4-0.3,0.9-0.4,1.3-0.4c0.4,0,0.7,0.1,1,0.3
		c0.3,0.2,0.5,0.4,0.7,0.8c0.2,0.3,0.3,0.7,0.3,1.1c0,0.4-0.1,0.8-0.3,1.1c-0.2,0.4-0.6,0.7-1.1,1.1l-0.5-0.7
		c0.4-0.3,0.7-0.6,0.9-0.8c0.1-0.2,0.2-0.5,0.2-0.7c0-0.4-0.1-0.6-0.3-0.9c-0.2-0.2-0.5-0.3-0.8-0.3c-0.2,0-0.4,0-0.6,0.1
		c-0.2,0.1-0.4,0.2-0.6,0.4c-0.1,0.1-0.4,0.5-0.9,1.1c-0.6,0.7-1.1,1.3-1.5,1.5c-0.4,0.3-0.9,0.4-1.3,0.4c-0.6,0-1.2-0.3-1.6-0.8
		c-0.5-0.5-0.7-1.1-0.7-1.8c0-0.5,0.2-1,0.4-1.4C2058.2,647.8,2058.7,647.5,2059.3,647.1z M2065.2,640.8l-3,0.3l0.1,1.5
		c0.1,0.6,0.1,1,0.3,1.3c0.1,0.3,0.3,0.5,0.6,0.6c0.3,0.1,0.5,0.2,0.8,0.2c0.3,0,0.5-0.1,0.8-0.3c0.2-0.2,0.4-0.4,0.5-0.7
		c0.1-0.3,0.1-0.7,0-1.3L2065.2,640.8z M2065.9,639.9l0.2,1.7c0.1,1,0.1,1.6,0.1,2c-0.1,0.5-0.3,1-0.6,1.3c-0.4,0.4-0.8,0.6-1.4,0.6
		c-0.5,0-0.9,0-1.3-0.2c-0.4-0.2-0.7-0.5-0.9-0.9c-0.2-0.4-0.4-1-0.4-1.7l-3.8,3.5l-0.1-1.1l3.8-3.5l0-0.5l-4,0.4l-0.1-0.9
		L2065.9,639.9z M2064.8,632.5l1,4.9l-0.8,0.2l-0.8-4.1l-2.7,0.5l0.8,4l-0.8,0.2l-0.8-4l-3.4,0.7l0.8,4l-0.8,0.2l-0.9-4.9
		L2064.8,632.5z M2061.5,622.6l0.3,0.9l-5.4,4.9l7.3,0.6l0.3,0.9l-9.5-0.7l-0.1-0.2L2061.5,622.6z M2060.3,619.8l0.4,0.8l-7.9,3.7
		l-0.4-0.8L2060.3,619.8z M2048.2,615.7l7.6-4.4l0.1,0.2l-2.9,8.4l5.8-3.3l0.4,0.7l-7.6,4.4l-0.1-0.2l2.8-8.3l-5.7,3.3L2048.2,615.7
		z M2050.2,603.8l0.5,0.7l-4.1,3.3c-0.5,0.4-0.8,0.6-0.9,0.8c-0.2,0.3-0.4,0.5-0.5,0.8c-0.1,0.3-0.1,0.6,0,0.9
		c0.1,0.4,0.2,0.7,0.4,0.9c0.2,0.2,0.4,0.4,0.7,0.5c0.3,0.1,0.5,0.2,0.8,0.2c0.3,0,0.6-0.1,0.9-0.2c0.2-0.1,0.6-0.4,1.1-0.8l4.1-3.3
		l0.5,0.7l-4.1,3.3c-0.6,0.5-1.1,0.8-1.6,1c-0.5,0.2-1,0.2-1.5,0.1c-0.6-0.1-1-0.5-1.5-1c-0.4-0.5-0.7-1.1-0.7-1.7
		c-0.1-0.6,0.1-1.1,0.4-1.6c0.2-0.3,0.6-0.7,1.3-1.3L2050.2,603.8z"/>
	<path class="st8" d="M2065,663.4l-0.3,1l-4,1.2l2.9,3l-0.3,1l-3.7-3.8l-4-1.1l0.2-0.8l4,1.1L2065,663.4z M2065.1,657.2l0.8,0.1
		l-0.8,4.7l-0.8-0.1l0.3-1.9l-7.8-1.4l0.2-0.9l7.8,1.4L2065.1,657.2z M2066.2,654.4l-0.1,0.9l-8.7-0.6l0.1-0.9L2066.2,654.4z
		 M2059.3,647.1l0.4,0.8c-1,0.5-1.5,1.1-1.5,1.8c0,0.3,0.1,0.6,0.2,0.8c0.1,0.3,0.3,0.5,0.5,0.6c0.2,0.1,0.5,0.2,0.7,0.2
		c0.3,0,0.6-0.1,0.9-0.3c0.4-0.3,0.9-0.8,1.4-1.5c0.6-0.7,1-1.2,1.2-1.3c0.4-0.3,0.9-0.4,1.3-0.4c0.4,0,0.7,0.1,1,0.3
		c0.3,0.2,0.5,0.4,0.7,0.8c0.2,0.3,0.3,0.7,0.3,1.1c0,0.4-0.1,0.8-0.3,1.1c-0.2,0.4-0.6,0.7-1.1,1.1l-0.5-0.7
		c0.4-0.3,0.7-0.6,0.9-0.8c0.1-0.2,0.2-0.5,0.2-0.7c0-0.4-0.1-0.6-0.3-0.9c-0.2-0.2-0.5-0.3-0.8-0.3c-0.2,0-0.4,0-0.6,0.1
		c-0.2,0.1-0.4,0.2-0.6,0.4c-0.1,0.1-0.4,0.5-0.9,1.1c-0.6,0.7-1.1,1.3-1.5,1.5c-0.4,0.3-0.9,0.4-1.3,0.4c-0.6,0-1.2-0.3-1.6-0.8
		c-0.5-0.5-0.7-1.1-0.7-1.8c0-0.5,0.2-1,0.4-1.4C2058.2,647.8,2058.7,647.5,2059.3,647.1z M2065.2,640.8l-3,0.3l0.1,1.5
		c0.1,0.6,0.1,1,0.3,1.3c0.1,0.3,0.3,0.5,0.6,0.6c0.3,0.1,0.5,0.2,0.8,0.2c0.3,0,0.5-0.1,0.8-0.3c0.2-0.2,0.4-0.4,0.5-0.7
		c0.1-0.3,0.1-0.7,0-1.3L2065.2,640.8z M2065.9,639.9l0.2,1.7c0.1,1,0.1,1.6,0.1,2c-0.1,0.5-0.3,1-0.6,1.3c-0.4,0.4-0.8,0.6-1.4,0.6
		c-0.5,0-0.9,0-1.3-0.2c-0.4-0.2-0.7-0.5-0.9-0.9c-0.2-0.4-0.4-1-0.4-1.7l-3.8,3.5l-0.1-1.1l3.8-3.5l0-0.5l-4,0.4l-0.1-0.9
		L2065.9,639.9z M2064.8,632.5l1,4.9l-0.8,0.2l-0.8-4.1l-2.7,0.5l0.8,4l-0.8,0.2l-0.8-4l-3.4,0.7l0.8,4l-0.8,0.2l-0.9-4.9
		L2064.8,632.5z M2061.5,622.6l0.3,0.9l-5.4,4.9l7.3,0.6l0.3,0.9l-9.5-0.7l-0.1-0.2L2061.5,622.6z M2060.3,619.8l0.4,0.8l-7.9,3.7
		l-0.4-0.8L2060.3,619.8z M2048.2,615.7l7.6-4.4l0.1,0.2l-2.9,8.4l5.8-3.3l0.4,0.7l-7.6,4.4l-0.1-0.2l2.8-8.3l-5.7,3.3L2048.2,615.7
		z M2050.2,603.8l0.5,0.7l-4.1,3.3c-0.5,0.4-0.8,0.6-0.9,0.8c-0.2,0.3-0.4,0.5-0.5,0.8c-0.1,0.3-0.1,0.6,0,0.9
		c0.1,0.4,0.2,0.7,0.4,0.9c0.2,0.2,0.4,0.4,0.7,0.5c0.3,0.1,0.5,0.2,0.8,0.2c0.3,0,0.6-0.1,0.9-0.2c0.2-0.1,0.6-0.4,1.1-0.8l4.1-3.3
		l0.5,0.7l-4.1,3.3c-0.6,0.5-1.1,0.8-1.6,1c-0.5,0.2-1,0.2-1.5,0.1c-0.6-0.1-1-0.5-1.5-1c-0.4-0.5-0.7-1.1-0.7-1.7
		c-0.1-0.6,0.1-1.1,0.4-1.6c0.2-0.3,0.6-0.7,1.3-1.3L2050.2,603.8z"/>
	<path class="st7" d="M2039.3,705.9l-0.8,0.6c-0.2-0.9-0.5-1.8-0.9-2.8c-0.4-1-1-1.9-1.7-2.8c-0.6-0.8-1.3-1.6-2-2.3
		c-0.7-0.7-1.4-1.2-2.1-1.6l0.7-0.5c0.7,0.4,1.3,0.9,2,1.6c0.7,0.7,1.4,1.4,2,2.2c0.7,0.9,1.2,1.8,1.7,2.8
		C2038.7,704,2039.1,704.9,2039.3,705.9z M2028.5,701.6l0.3,3.5l2.6-1.5L2028.5,701.6z M2027.7,700l7.9,5.5l-0.8,0.5l-2.6-1.8
		l-3.2,1.9l0.3,3.2l-0.8,0.5l-0.9-9.6L2027.7,700z M2022.1,702.7l0.8-0.4l3.6,7.9l-0.8,0.4L2022.1,702.7z M2017.4,713l1-0.3
		c1.1-0.4,1.9-0.8,2.3-1c0.5-0.4,0.9-1,1.1-1.6c0.2-0.6,0.1-1.4-0.1-2.1c-0.3-0.8-0.7-1.4-1.3-1.8c-0.6-0.4-1.3-0.6-2-0.6
		c-0.6,0-1.4,0.2-2.6,0.7l-0.6,0.2L2017.4,713z M2016.9,714l-2.9-8.2l1.7-0.6c1.2-0.4,2.2-0.6,2.8-0.6c0.9,0,1.7,0.3,2.4,0.8
		c0.7,0.5,1.2,1.3,1.5,2.2c0.3,0.8,0.4,1.6,0.2,2.4c-0.1,0.8-0.4,1.4-0.9,1.9c-0.5,0.5-1.2,0.9-2.2,1.3L2016.9,714z M2007.4,716.2
		l-1.7-8.6l0.2,0l7,5.4l-1.3-6.5l0.8-0.2l1.7,8.6l-0.2,0l-6.9-5.3l1.3,6.5L2007.4,716.2z M2003.2,707.8l0.9-0.1l0.7,8.7l-0.9,0.1
		L2003.2,707.8z M2000.1,707.7l1,0c-0.4,0.8-0.6,1.7-0.8,2.8c-0.2,1.1-0.3,2.2-0.2,3.3c0,1,0.2,2,0.4,3c0.2,1,0.5,1.8,0.8,2.5
		l-0.9,0c-0.3-0.7-0.6-1.5-0.8-2.5c-0.2-0.9-0.3-1.9-0.4-3c0-1.1,0-2.2,0.2-3.3C1999.5,709.6,1999.8,708.6,2000.1,707.7z
		 M1988.6,712.2l-0.4,3.3l1.1,0.1c0.6,0.1,1.1,0.1,1.4,0c0.3-0.1,0.6-0.2,0.8-0.5c0.2-0.2,0.3-0.5,0.4-0.8c0.1-0.4,0-0.7-0.2-1.1
		c-0.2-0.3-0.5-0.6-1-0.7c-0.3-0.1-0.8-0.2-1.5-0.3L1988.6,712.2z M1989,708.6l-0.4,2.8l0.5,0.1c0.6,0.1,1,0.1,1.3,0
		c0.3-0.1,0.5-0.2,0.7-0.4c0.2-0.2,0.3-0.5,0.4-0.8c0.1-0.4,0-0.7-0.3-1c-0.2-0.3-0.7-0.4-1.3-0.5L1989,708.6z M1988.3,707.6
		l1.7,0.2c0.7,0.1,1.2,0.2,1.5,0.5c0.3,0.2,0.6,0.5,0.8,0.9c0.2,0.4,0.2,0.8,0.2,1.2c-0.1,0.4-0.2,0.7-0.4,1
		c-0.2,0.3-0.5,0.5-0.9,0.7c0.4,0.2,0.8,0.4,1,0.7c0.2,0.2,0.4,0.5,0.5,0.8c0.1,0.3,0.1,0.6,0.1,1c-0.1,0.7-0.4,1.2-1,1.7
		c-0.6,0.4-1.3,0.6-2.1,0.5l-2.4-0.3L1988.3,707.6z M1982.6,708.5l-2.2,2.7l2.9,0.7L1982.6,708.5z M1983.2,706.7l1.9,9.4l-0.9-0.2
		l-0.7-3.1l-3.7-0.9l-2,2.5l-0.9-0.2l6-7.5L1983.2,706.7z M1976.8,704.9l0.8,0.3l-1.8,5.6c-0.3,0.9-0.5,1.4-0.8,1.7
		c-0.2,0.3-0.5,0.5-0.9,0.6c-0.4,0.1-0.8,0.1-1.2-0.1c-0.3-0.1-0.6-0.3-0.9-0.5c-0.3-0.2-0.6-0.6-0.9-1l0.6-0.5
		c0.3,0.4,0.6,0.8,0.9,1c0.2,0.1,0.3,0.2,0.5,0.3c0.2,0.1,0.5,0.1,0.7,0c0.2-0.1,0.4-0.2,0.6-0.4c0.2-0.2,0.3-0.7,0.5-1.3
		L1976.8,704.9z M1962.8,708.2l4-7.7l0.2,0.1l2.1,8.6l3.1-5.9l0.8,0.4l-4,7.7l-0.2-0.1l-2.1-8.5l-3,5.8L1962.8,708.2z M1960.2,696.5
		l0.7,0.5l-2.9,4.4c-0.3,0.5-0.5,0.9-0.6,1c-0.2,0.3-0.2,0.6-0.2,0.9c0,0.3,0.1,0.6,0.3,0.9c0.2,0.3,0.4,0.6,0.7,0.7
		c0.2,0.2,0.5,0.3,0.8,0.3c0.3,0,0.6,0,0.8-0.1c0.3-0.1,0.5-0.2,0.8-0.4c0.2-0.2,0.4-0.5,0.8-1.1l2.9-4.4l0.7,0.5l-2.9,4.4
		c-0.4,0.7-0.8,1.1-1.2,1.4c-0.4,0.3-0.9,0.5-1.5,0.5c-0.6,0-1.1-0.1-1.7-0.5c-0.6-0.4-1-0.9-1.2-1.4c-0.2-0.6-0.3-1.1-0.1-1.7
		c0.1-0.3,0.4-0.9,0.9-1.6L1960.2,696.5z M1955.1,693.3l-1.9,2.3l1.1,1c0.5,0.4,0.8,0.6,1.1,0.7c0.3,0.1,0.6,0.1,0.8,0
		c0.3-0.1,0.5-0.2,0.7-0.5c0.2-0.2,0.3-0.5,0.3-0.8c0-0.3,0-0.6-0.1-0.8c-0.1-0.2-0.4-0.6-0.9-0.9L1955.1,693.3z M1955,692.1
		l1.3,1.1c0.8,0.6,1.2,1.1,1.4,1.4c0.3,0.4,0.4,0.9,0.4,1.4c0,0.5-0.2,1-0.6,1.4c-0.4,0.4-0.8,0.7-1.3,0.8c-0.5,0.1-1,0-1.5-0.3
		c-0.4-0.2-1-0.6-1.8-1.3l-0.5-0.4l-2.6,3.1l-0.7-0.6L1955,692.1z"/>
	<path class="st8" d="M2039.3,705.9l-0.8,0.6c-0.2-0.9-0.5-1.8-0.9-2.8c-0.4-1-1-1.9-1.7-2.8c-0.6-0.8-1.3-1.6-2-2.3
		c-0.7-0.7-1.4-1.2-2.1-1.6l0.7-0.5c0.7,0.4,1.3,0.9,2,1.6c0.7,0.7,1.4,1.4,2,2.2c0.7,0.9,1.2,1.8,1.7,2.8
		C2038.7,704,2039.1,704.9,2039.3,705.9z M2028.5,701.6l0.3,3.5l2.6-1.5L2028.5,701.6z M2027.7,700l7.9,5.5l-0.8,0.5l-2.6-1.8
		l-3.2,1.9l0.3,3.2l-0.8,0.5l-0.9-9.6L2027.7,700z M2022.1,702.7l0.8-0.4l3.6,7.9l-0.8,0.4L2022.1,702.7z M2017.4,713l1-0.3
		c1.1-0.4,1.9-0.8,2.3-1c0.5-0.4,0.9-1,1.1-1.6c0.2-0.6,0.1-1.4-0.1-2.1c-0.3-0.8-0.7-1.4-1.3-1.8c-0.6-0.4-1.3-0.6-2-0.6
		c-0.6,0-1.4,0.2-2.6,0.7l-0.6,0.2L2017.4,713z M2016.9,714l-2.9-8.2l1.7-0.6c1.2-0.4,2.2-0.6,2.8-0.6c0.9,0,1.7,0.3,2.4,0.8
		c0.7,0.5,1.2,1.3,1.5,2.2c0.3,0.8,0.4,1.6,0.2,2.4c-0.1,0.8-0.4,1.4-0.9,1.9c-0.5,0.5-1.2,0.9-2.2,1.3L2016.9,714z M2007.4,716.2
		l-1.7-8.6l0.2,0l7,5.4l-1.3-6.5l0.8-0.2l1.7,8.6l-0.2,0l-6.9-5.3l1.3,6.5L2007.4,716.2z M2003.2,707.8l0.9-0.1l0.7,8.7l-0.9,0.1
		L2003.2,707.8z M2000.1,707.7l1,0c-0.4,0.8-0.6,1.7-0.8,2.8c-0.2,1.1-0.3,2.2-0.2,3.3c0,1,0.2,2,0.4,3c0.2,1,0.5,1.8,0.8,2.5
		l-0.9,0c-0.3-0.7-0.6-1.5-0.8-2.5c-0.2-0.9-0.3-1.9-0.4-3c0-1.1,0-2.2,0.2-3.3C1999.5,709.6,1999.8,708.6,2000.1,707.7z
		 M1988.6,712.2l-0.4,3.3l1.1,0.1c0.6,0.1,1.1,0.1,1.4,0c0.3-0.1,0.6-0.2,0.8-0.5c0.2-0.2,0.3-0.5,0.4-0.8c0.1-0.4,0-0.7-0.2-1.1
		c-0.2-0.3-0.5-0.6-1-0.7c-0.3-0.1-0.8-0.2-1.5-0.3L1988.6,712.2z M1989,708.6l-0.4,2.8l0.5,0.1c0.6,0.1,1,0.1,1.3,0
		c0.3-0.1,0.5-0.2,0.7-0.4c0.2-0.2,0.3-0.5,0.4-0.8c0.1-0.4,0-0.7-0.3-1c-0.2-0.3-0.7-0.4-1.3-0.5L1989,708.6z M1988.3,707.6
		l1.7,0.2c0.7,0.1,1.2,0.2,1.5,0.5c0.3,0.2,0.6,0.5,0.8,0.9c0.2,0.4,0.2,0.8,0.2,1.2c-0.1,0.4-0.2,0.7-0.4,1
		c-0.2,0.3-0.5,0.5-0.9,0.7c0.4,0.2,0.8,0.4,1,0.7c0.2,0.2,0.4,0.5,0.5,0.8c0.1,0.3,0.1,0.6,0.1,1c-0.1,0.7-0.4,1.2-1,1.7
		c-0.6,0.4-1.3,0.6-2.1,0.5l-2.4-0.3L1988.3,707.6z M1982.6,708.5l-2.2,2.7l2.9,0.7L1982.6,708.5z M1983.2,706.7l1.9,9.4l-0.9-0.2
		l-0.7-3.1l-3.7-0.9l-2,2.5l-0.9-0.2l6-7.5L1983.2,706.7z M1976.8,704.9l0.8,0.3l-1.8,5.6c-0.3,0.9-0.5,1.4-0.8,1.7
		c-0.2,0.3-0.5,0.5-0.9,0.6c-0.4,0.1-0.8,0.1-1.2-0.1c-0.3-0.1-0.6-0.3-0.9-0.5c-0.3-0.2-0.6-0.6-0.9-1l0.6-0.5
		c0.3,0.4,0.6,0.8,0.9,1c0.2,0.1,0.3,0.2,0.5,0.3c0.2,0.1,0.5,0.1,0.7,0c0.2-0.1,0.4-0.2,0.6-0.4c0.2-0.2,0.3-0.7,0.5-1.3
		L1976.8,704.9z M1962.8,708.2l4-7.7l0.2,0.1l2.1,8.6l3.1-5.9l0.8,0.4l-4,7.7l-0.2-0.1l-2.1-8.5l-3,5.8L1962.8,708.2z M1960.2,696.5
		l0.7,0.5l-2.9,4.4c-0.3,0.5-0.5,0.9-0.6,1c-0.2,0.3-0.2,0.6-0.2,0.9c0,0.3,0.1,0.6,0.3,0.9c0.2,0.3,0.4,0.6,0.7,0.7
		c0.2,0.2,0.5,0.3,0.8,0.3c0.3,0,0.6,0,0.8-0.1c0.3-0.1,0.5-0.2,0.8-0.4c0.2-0.2,0.4-0.5,0.8-1.1l2.9-4.4l0.7,0.5l-2.9,4.4
		c-0.4,0.7-0.8,1.1-1.2,1.4c-0.4,0.3-0.9,0.5-1.5,0.5c-0.6,0-1.1-0.1-1.7-0.5c-0.6-0.4-1-0.9-1.2-1.4c-0.2-0.6-0.3-1.1-0.1-1.7
		c0.1-0.3,0.4-0.9,0.9-1.6L1960.2,696.5z M1955.1,693.3l-1.9,2.3l1.1,1c0.5,0.4,0.8,0.6,1.1,0.7c0.3,0.1,0.6,0.1,0.8,0
		c0.3-0.1,0.5-0.2,0.7-0.5c0.2-0.2,0.3-0.5,0.3-0.8c0-0.3,0-0.6-0.1-0.8c-0.1-0.2-0.4-0.6-0.9-0.9L1955.1,693.3z M1955,692.1
		l1.3,1.1c0.8,0.6,1.2,1.1,1.4,1.4c0.3,0.4,0.4,0.9,0.4,1.4c0,0.5-0.2,1-0.6,1.4c-0.4,0.4-0.8,0.7-1.3,0.8c-0.5,0.1-1,0-1.5-0.3
		c-0.4-0.2-1-0.6-1.8-1.3l-0.5-0.4l-2.6,3.1l-0.7-0.6L1955,692.1z"/>
	<path d="M1941.7,681.8c1.4,0,2.5,1.1,2.5,2.5c0,1.4-1.1,2.5-2.5,2.5c-1.4,0-2.5-1.1-2.5-2.5
		C1939.1,682.9,1940.3,681.8,1941.7,681.8z"/>
	<path class="st8" d="M1941.7,681.8c1.4,0,2.5,1.1,2.5,2.5c0,1.4-1.1,2.5-2.5,2.5c-1.4,0-2.5-1.1-2.5-2.5
		C1939.1,682.9,1940.3,681.8,1941.7,681.8z"/>
	<path d="M2050.7,681.8c1.4,0,2.5,1.1,2.5,2.5c0,1.4-1.1,2.5-2.5,2.5c-1.4,0-2.5-1.1-2.5-2.5
		C2048.2,682.9,2049.3,681.8,2050.7,681.8z"/>
	<path class="st8" d="M2050.7,681.8c1.4,0,2.5,1.1,2.5,2.5c0,1.4-1.1,2.5-2.5,2.5c-1.4,0-2.5-1.1-2.5-2.5
		C2048.2,682.9,2049.3,681.8,2050.7,681.8z"/>
	<rect x="2096.1" y="574.8" class="st9" width="41.4" height="41.4"/>
	<rect x="2096.1" y="574.8" class="st10" width="41.4" height="41.4"/>
	<rect x="2096.1" y="625.5" class="st9" width="41.4" height="41.4"/>
	<rect x="2096.1" y="625.5" class="st10" width="41.4" height="41.4"/>
	<rect x="2096.1" y="676.3" class="st9" width="41.4" height="41.4"/>
	<rect x="2096.1" y="676.3" class="st10" width="41.4" height="41.4"/>
	<path class="st7" d="M2257.4,610.5v-12.8l10-17.3h-4.4l-4.3,8.3c-1.2,2.3-2.2,4.2-3,6.2h-0.1c-0.9-2.1-1.9-3.9-3-6.2l-4.2-8.3h-4.5
		l9.5,17.3v12.8L2257.4,610.5L2257.4,610.5L2257.4,610.5z M2227.6,610.5h16.8v-3.3h-12.9v-26.8h-3.9V610.5L2227.6,610.5z
		 M2219.3,593.2h-11.6v-9.5h12.4v-3.3h-16.3v30.1h17v-3.3h-13v-10.8h11.6V593.2L2219.3,593.2z M2187.9,610.5l10.8-30.1h-4.1
		l-5.1,14.9c-1.4,3.9-2.6,7.7-3.4,11.2h-0.1c-0.9-3.5-2-7.2-3.2-11.2l-4.7-14.8h-4.2l9.9,30.1L2187.9,610.5L2187.9,610.5
		L2187.9,610.5z M2156.3,607.8c-6.1,0-9.6-5.8-9.6-12.2c0-6.5,3.2-12.5,9.7-12.5c6.5,0,9.6,6.2,9.6,12.2
		C2165.9,602.2,2162.5,607.8,2156.3,607.8L2156.3,607.8L2156.3,607.8z M2156.1,611c7.6,0,13.9-5.5,13.9-15.8
		c0-8.9-5.3-15.2-13.6-15.2c-8,0-13.9,6.2-13.9,15.8C2142.6,604.8,2148.1,611,2156.1,611L2156.1,611L2156.1,611z"/>
	<path class="st7" d="M2335.1,661h14.2v-3.3h-10.9v-26.8h-3.3L2335.1,661L2335.1,661z M2318.1,648.5l2.5-8.7
		c0.5-1.8,0.9-3.7,1.2-5.4h0.1c0.4,1.7,0.8,3.5,1.3,5.5l2.5,8.7L2318.1,648.5L2318.1,648.5L2318.1,648.5z M2326.4,651.5l2.7,9.5h3.5
		l-8.7-30.1h-4l-8.6,30.1h3.4l2.6-9.5H2326.4z M2292.8,661v-12.8c0-5,0-8.6-0.2-12.4l0.1,0c1.2,3.3,2.9,6.7,4.7,10l8.1,15.3h3.3
		v-30.1h-3.1v12.6c0,4.6,0.1,8.3,0.4,12.3l-0.1,0c-1.2-3.1-2.7-6.2-4.5-9.8l-8.1-15.2h-3.6V661L2292.8,661L2292.8,661z
		 M2274.9,658.3c-5.2,0-8.1-5.8-8.1-12.2c0-6.5,2.7-12.5,8.2-12.5c5.5,0,8.1,6.2,8.1,12.2C2283.1,652.6,2280.2,658.3,2274.9,658.3
		L2274.9,658.3z M2274.8,661.5c6.4,0,11.8-5.5,11.8-15.8c0-8.9-4.5-15.2-11.5-15.2c-6.8,0-11.8,6.2-11.8,15.8
		C2263.4,655.3,2268,661.5,2274.8,661.5L2274.8,661.5L2274.8,661.5z M2257,630.9V661h3.3v-30.1H2257z M2238.4,659.5
		c1.4,1.1,4,2,6.5,2c6,0,8.9-4.1,8.9-8.7c0-4.4-2.1-6.8-6.5-8.8c-3.5-1.6-5.1-3-5.1-5.8c0-2.1,1.3-4.5,4.8-4.5c2.3,0,4,0.8,4.8,1.4
		l0.9-3.2c-1.1-0.7-3-1.4-5.6-1.4c-4.9,0-8.2,3.5-8.2,8.2c0,4.2,2.6,6.8,6.7,8.5c3.4,1.5,4.8,3.2,4.8,6c0,3-2,5.1-5.3,5.1
		c-2.3,0-4.4-0.8-5.8-1.9L2238.4,659.5z M2221,659.5c1.4,1.1,4,2,6.5,2c6,0,8.9-4.1,8.9-8.7c0-4.4-2.1-6.8-6.5-8.8
		c-3.5-1.6-5.1-3-5.1-5.8c0-2.1,1.3-4.5,4.8-4.5c2.3,0,4,0.8,4.8,1.4l0.9-3.2c-1.1-0.7-3-1.4-5.6-1.4c-4.9,0-8.2,3.5-8.2,8.2
		c0,4.2,2.6,6.8,6.7,8.5c3.4,1.5,4.8,3.2,4.8,6c0,3-2,5.1-5.3,5.1c-2.3,0-4.4-0.8-5.8-1.9L2221,659.5z M2218,643.7h-9.8v-9.5h10.5
		v-3.3h-13.8V661h14.3v-3.3h-11v-10.8h9.8V643.7L2218,643.7z M2187.7,661h3.3v-13.6h9.6v-3.2h-9.6v-10h10.4v-3.3h-13.7L2187.7,661
		L2187.7,661z M2173,658.3c-5.2,0-8.1-5.8-8.1-12.2c0-6.5,2.7-12.5,8.2-12.5c5.5,0,8.1,6.2,8.1,12.2
		C2181.2,652.6,2178.2,658.3,2173,658.3L2173,658.3z M2172.9,661.5c6.5,0,11.8-5.5,11.8-15.8c0-8.9-4.5-15.2-11.5-15.2
		c-6.8,0-11.8,6.2-11.8,15.8C2161.4,655.3,2166.1,661.5,2172.9,661.5L2172.9,661.5L2172.9,661.5z M2147.1,634.1
		c0.6-0.2,1.7-0.4,3.2-0.4c3.5,0,5.8,1.7,5.8,5.6c0,3.4-2.2,5.7-5.7,5.7h-3.4V634.1z M2143.8,661h3.3v-13h3.1c3,0.1,4.4,1.7,5.1,5.8
		c0.7,3.7,1.2,6.3,1.7,7.2h3.4c-0.5-1.2-1.1-4.1-1.9-8.3c-0.6-3.1-1.8-5.3-3.7-6.1v-0.1c2.6-1.1,4.8-3.7,4.8-7.6
		c0-2.4-0.8-4.4-2-5.7c-1.6-1.7-3.9-2.5-7.4-2.5c-2.2,0-4.6,0.3-6.3,0.7L2143.8,661L2143.8,661L2143.8,661z"/>
	<path class="st7" d="M2340.8,711.4v-12.8l10-17.3h-4.4l-4.3,8.3c-1.2,2.3-2.2,4.2-3,6.2h-0.1c-0.9-2.1-1.9-3.9-3-6.2l-4.2-8.3h-4.5
		l9.5,17.3v12.8L2340.8,711.4L2340.8,711.4L2340.8,711.4z M2310.1,711.4h3.9v-26.8h9.2v-3.3H2301v3.3h9.2L2310.1,711.4L2310.1,711.4
		z M2291.4,681.4v30.1h3.9v-30.1H2291.4z M2265.5,709.9c1.6,1.1,4.8,2,7.7,2c7.1,0,10.5-4.1,10.5-8.7c0-4.4-2.5-6.8-7.6-8.8
		c-4.1-1.6-6-3-6-5.8c0-2.1,1.6-4.5,5.7-4.5c2.7,0,4.7,0.8,5.7,1.4l1.1-3.2c-1.3-0.7-3.6-1.4-6.6-1.4c-5.8,0-9.7,3.5-9.7,8.2
		c0,4.2,3,6.8,7.9,8.5c4.1,1.5,5.7,3.2,5.7,6c0,3-2.3,5.1-6.3,5.1c-2.7,0-5.2-0.8-6.9-1.9L2265.5,709.9z M2244.6,684.5
		c0.7-0.2,2-0.4,3.8-0.4c4.1,0,6.9,1.7,6.9,5.6c0,3.4-2.6,5.7-6.8,5.7h-4V684.5L2244.6,684.5z M2240.7,711.4h3.9v-13h3.7
		c3.5,0.1,5.2,1.7,6.1,5.8c0.8,3.7,1.5,6.3,2,7.2h4c-0.6-1.2-1.3-4.1-2.3-8.3c-0.8-3.1-2.1-5.3-4.4-6.1V697c3.1-1.1,5.7-3.7,5.7-7.6
		c0-2.4-0.9-4.4-2.4-5.7c-1.9-1.7-4.6-2.5-8.7-2.5c-2.6,0-5.5,0.3-7.5,0.7L2240.7,711.4L2240.7,711.4L2240.7,711.4z M2231.9,694.1
		h-11.6v-9.5h12.4v-3.3h-16.3v30.1h17v-3.3h-13v-10.8h11.6V694.1L2231.9,694.1z M2200,711.4l10.8-30.1h-4.1l-5.1,14.9
		c-1.4,3.9-2.6,7.7-3.4,11.2h-0.1c-0.8-3.5-2-7.2-3.2-11.2l-4.7-14.8h-4.2l9.9,30.1L2200,711.4L2200,711.4L2200,711.4z M2176,681.4
		v30.1h3.9v-30.1H2176z M2148,711.4v-12.9c0-5,0-8.6-0.3-12.4l0.1,0c1.5,3.3,3.5,6.7,5.6,10l9.5,15.3h3.9v-30.1h-3.7V694
		c0,4.6,0.1,8.3,0.4,12.3l-0.1,0c-1.4-3.1-3.2-6.2-5.4-9.8l-9.6-15.2h-4.3v30.1L2148,711.4L2148,711.4z"/>
	<path d="M2106.4,681.4v17.7c0,9.4,4.6,12.9,10.8,12.9c6.5,0,11.4-3.8,11.4-13v-17.6h-3.9v17.8c0,6.6-2.9,9.5-7.3,9.5
		c-4,0-7-2.9-7-9.5v-17.8H2106.4L2106.4,681.4z M2110.3,634.1c0.7-0.2,2-0.3,3.7-0.3c4.3,0,7.1,1.9,7.1,5.9c0,4.1-2.9,6.4-7.5,6.4
		c-1.3,0-2.4-0.1-3.2-0.3L2110.3,634.1L2110.3,634.1z M2106.4,661h3.9v-12.1c0.9,0.2,2,0.3,3.1,0.3c3.8,0,7.1-1.1,9.2-3.3
		c1.6-1.6,2.4-3.7,2.4-6.4c0-2.6-1-4.8-2.7-6.2c-1.8-1.6-4.6-2.5-8.4-2.5c-3.1,0-5.6,0.3-7.5,0.6V661L2106.4,661z M2106.4,610.5
		h16.8v-3.3h-12.8v-26.8h-3.9V610.5L2106.4,610.5z"/>
</g>
</svg>
